<?xml version="1.0" encoding="UTF-8" standalone="no"?><!DOCTYPE svg PUBLIC "-//W3C//DTD SVG 1.1//EN" "http://www.w3.org/Graphics/SVG/1.1/DTD/svg11.dtd"><svg width="100%" height="100%" viewBox="0 0 8534 8534" version="1.1" xmlns="http://www.w3.org/2000/svg" xmlns:xlink="http://www.w3.org/1999/xlink" xml:space="preserve" xmlns:serif="http://www.serif.com/" style="fill-rule:evenodd;clip-rule:evenodd;stroke-linejoin:round;stroke-miterlimit:2;"><g id="Background"><path d="M5720.778,2208.659c18.156,1.289 156.903,11.136 224.05,39.598c11.222,4.757 85.23,36.127 132.911,74.471c199.135,160.142 237.869,317.303 237.843,506.441c-0.267,1895.338 0.333,2070.927 -0.149,2100.085c-7.218,436 -438.374,685.396 -793.895,548.046c-202.235,-78.13 -268.334,-237.298 -288.248,-211.108c-284.836,374.597 -707.022,252.342 -851.981,109.128c-56.248,-55.57 32.965,287.303 -52.543,553.707c-53.942,168.058 -232.348,351.414 -457.59,385.4c-80.454,12.14 -80.572,11.548 -1017.015,9.273c-484.458,-1.177 -630.815,-376.414 -636.171,-611.157c-0.645,-28.273 -0.494,-2878.542 -0.152,-2900.074c8.828,-555.57 597.494,-754.265 941.562,-479.651c265.307,211.752 225.419,429.283 226.118,863.014c1.567,971.379 -2.378,1720.641 2.525,1758.271c62.525,479.911 685.961,487.354 775.88,42.009c16.767,-83.045 2.451,-1986.131 8.36,-2216.89c8.666,-338.475 302.854,-586.71 615.455,-569.603c289.226,15.828 452.028,255.22 458.333,254.784c12.027,-0.832 154.657,-246.927 474.707,-255.745Zm-941.807,190.958c-21.286,0.409 -161.72,3.104 -255.27,75.212c-175.096,134.964 -159.927,305.944 -159.672,362.662c8.58,1909.789 -2.7,1909.02 0.026,2074.997c9.037,550.237 781.458,548.657 783.585,-16.642c0.627,-166.668 5.813,-1544.567 0.125,-2083.359c-2.467,-233.713 -155.432,-393.695 -368.794,-412.871Zm1345.561,579.552c-0.049,-89.35 0.334,-115.031 0.483,-125.032c9.306,-623.765 -760.331,-560.299 -786.188,-74.886c-1.706,32.033 -1.324,2129.879 -0.285,2158.187c18.195,495.53 786.471,550.001 786.036,-58.272l-0.046,-1899.996Zm-3715.866,1858.33c-1.406,977.037 -7.686,985.039 57.09,1089.631c147.955,238.901 350.787,203.581 763.412,203.514c611.59,-0.099 696.055,22.816 839.796,-136.46c123.646,-137.01 95.244,-245.735 103.02,-615.19c1.191,-56.605 -44.685,78.875 -292.475,127.218c-268.084,52.303 -675.647,-126.901 -683.362,-585.385c-4.562,-271.116 8.741,-2116.059 -8.013,-2200.122c-75.412,-378.376 -582.965,-434.979 -742.888,-91.823c-51.748,111.038 -35.386,174.665 -36.722,1283.609c-0.935,776.025 0.124,921.835 0.143,925.007Z" style="fill:#010101;"/></g></svg>