<?xml version="1.0" encoding="UTF-8" standalone="no"?>
<!DOCTYPE svg PUBLIC "-//W3C//DTD SVG 1.1//EN" "http://www.w3.org/Graphics/SVG/1.1/DTD/svg11.dtd">
<svg width="100%" height="100%" viewBox="0 0 8534 8534" version="1.1" xmlns="http://www.w3.org/2000/svg" xmlns:xlink="http://www.w3.org/1999/xlink" xml:space="preserve" xmlns:serif="http://www.serif.com/" style="fill-rule:evenodd;clip-rule:evenodd;stroke-linejoin:round;stroke-miterlimit:2;">
    <g id="Background">
        <path d="M5720.778,2208.659C5738.934,2209.948 5877.681,2219.795 5944.828,2248.257C5956.05,2253.014 6030.058,2284.384 6077.739,2322.728C6276.874,2482.87 6315.608,2640.031 6315.582,2829.169C6315.315,4724.507 6315.915,4900.096 6315.433,4929.254C6308.215,5365.254 5877.059,5614.65 5521.538,5477.3C5319.303,5399.17 5253.204,5240.002 5233.29,5266.192C4948.454,5640.789 4526.268,5518.534 4381.309,5375.32C4325.061,5319.75 4414.274,5662.623 4328.766,5929.027C4274.824,6097.085 4096.418,6280.441 3871.176,6314.427C3790.722,6326.567 3790.604,6325.975 2854.161,6323.7C2369.703,6322.523 2223.346,5947.286 2217.99,5712.543C2217.345,5684.27 2217.496,2834.001 2217.838,2812.469C2226.666,2256.899 2815.332,2058.204 3159.4,2332.818C3424.707,2544.57 3384.819,2762.101 3385.518,3195.832C3387.085,4167.211 3383.14,4916.473 3388.043,4954.103C3450.568,5434.014 4074.004,5441.457 4163.923,4996.112C4180.69,4913.067 4166.374,3009.981 4172.283,2779.222C4180.949,2440.747 4475.137,2192.512 4787.738,2209.619C5076.964,2225.447 5239.766,2464.839 5246.071,2464.403C5258.098,2463.571 5400.728,2217.476 5720.778,2208.658L5720.778,2208.659ZM4778.971,2399.617C4757.685,2400.026 4617.251,2402.721 4523.701,2474.829C4348.605,2609.793 4363.774,2780.773 4364.029,2837.491C4372.609,4747.28 4361.329,4746.511 4364.055,4912.488C4373.092,5462.725 5145.513,5461.145 5147.64,4895.846C5148.267,4729.178 5153.453,3351.279 5147.765,2812.487C5145.298,2578.774 4992.333,2418.792 4778.971,2399.616L4778.971,2399.617ZM6124.532,2979.169C6124.483,2889.819 6124.866,2864.138 6125.015,2854.137C6134.321,2230.372 5364.684,2293.838 5338.827,2779.251C5337.121,2811.284 5337.503,4909.13 5338.542,4937.438C5356.737,5432.968 6125.013,5487.439 6124.578,4879.166L6124.532,2979.17L6124.532,2979.169ZM2408.666,4837.499C2407.26,5814.536 2400.98,5822.538 2465.756,5927.13C2613.711,6166.031 2816.543,6130.711 3229.168,6130.644C3840.758,6130.545 3925.223,6153.46 4068.964,5994.184C4192.61,5857.174 4164.208,5748.449 4171.984,5378.994C4173.175,5322.389 4127.299,5457.869 3879.509,5506.212C3611.425,5558.515 3203.862,5379.311 3196.147,4920.827C3191.585,4649.711 3204.888,2804.768 3188.134,2720.705C3112.722,2342.329 2605.169,2285.726 2445.246,2628.882C2393.498,2739.92 2409.86,2803.547 2408.524,3912.491C2407.589,4688.516 2408.648,4834.326 2408.667,4837.498L2408.666,4837.499Z" style="fill:white;"/>
    </g>
</svg>
